<?xml version="1.0" encoding="UTF-8"?><svg id="Layer_1" xmlns="http://www.w3.org/2000/svg" viewBox="0 0 326 346.09"><defs><style>.cls-1{fill:#fff;}.cls-2{fill:red;}.cls-2,.cls-3{stroke:#000;stroke-miterlimit:10;stroke-width:5px;}.cls-4,.cls-3{fill:#0071bc;}.cls-5{fill:#006837;font-family:HadassahFriedlaender-Bold, 'Hadassah Friedlaender';font-size:280px;font-weight:700;}</style></defs><circle class="cls-4" cx="163" cy="168" r="147.5"/><path d="m163,23c38.73,0,75.14,15.08,102.53,42.47,27.39,27.39,42.47,63.8,42.47,102.53s-15.08,75.14-42.47,102.53c-27.39,27.39-63.8,42.47-102.53,42.47s-75.14-15.08-102.53-42.47c-27.39-27.39-42.47-63.8-42.47-102.53s15.08-75.14,42.47-102.53c27.39-27.39,63.8-42.47,102.53-42.47m0-5C80.16,18,13,85.16,13,168s67.16,150,150,150,150-67.16,150-150S245.84,18,163,18h0Z"/><circle class="cls-1" cx="163" cy="168" r="127.5"/><path d="m163,43c33.39,0,64.78,13,88.39,36.61,23.61,23.61,36.61,55,36.61,88.39s-13,64.78-36.61,88.39-55,36.61-88.39,36.61-64.78-13-88.39-36.61c-23.61-23.61-36.61-55-36.61-88.39s13-64.78,36.61-88.39c23.61-23.61,55-36.61,88.39-36.61m0-5c-71.8,0-130,58.2-130,130s58.2,130,130,130,130-58.2,130-130S234.8,38,163,38h0Z"/><text class="cls-5" transform="translate(23.56 274.18)"><tspan x="0" y="0">W</tspan></text><circle class="cls-2" cx="163" cy="168" r="24.5"/><rect class="cls-3" x="156" y="2.5" width="20" height="50"/><rect class="cls-3" x="158.5" y="283.5" width="20" height="50"/><rect class="cls-3" x="17.5" y="136.5" width="20" height="50" transform="translate(189 134) rotate(90)"/><rect class="cls-3" x="288.5" y="136.5" width="20" height="50" transform="translate(460 -137) rotate(90)"/></svg>