<?xml version="1.0" encoding="utf-8"?>
<!-- Generator: Adobe Illustrator 26.0.3, SVG Export Plug-In . SVG Version: 6.00 Build 0)  -->
<svg version="1.1" id="Layer_1" xmlns="http://www.w3.org/2000/svg" xmlns:xlink="http://www.w3.org/1999/xlink" x="0px" y="0px"
	 viewBox="0 0 300 300" style="enable-background:new 0 0 300 300;" xml:space="preserve">
<style type="text/css">
	.st0{fill:#9FA6B2;}
	.st1{fill:none;stroke:#9FA6B2;stroke-miterlimit:10;}
	.st2{fill:#14A44D;}
	.st3{fill:none;stroke:#14A44D;stroke-miterlimit:10;}
	.st4{fill:#E4A11B;}
	.st5{fill:none;stroke:#E4A11B;stroke-miterlimit:10;}
	.st6{fill:#C6C6C6;}
	.st7{fill:none;}
	.st8{fill:#FFFFFF;}
	.st9{font-family:'MyriadPro-Regular';}
	.st10{font-size:72px;}
</style>
<g>
	
		<image style="overflow:visible;opacity:0.75;" width="254" height="254" xlink:href="7E7A3439.png"  transform="matrix(0.48 0 0 0.48 188.52 181.32)">
	</image>
	<g>
		<path class="st0" d="M282.2,282.2h-75.5c-4,0-7.3-3.2-7.3-7.3v-75.5c0-4,3.2-7.3,7.3-7.3h75.5c4,0,7.3,3.2,7.3,7.3V275
			C289.4,279,286.2,282.2,282.2,282.2z"/>
		<path class="st1" d="M282.2,282.2h-75.5c-4,0-7.3-3.2-7.3-7.3v-75.5c0-4,3.2-7.3,7.3-7.3h75.5c4,0,7.3,3.2,7.3,7.3V275
			C289.4,279,286.2,282.2,282.2,282.2z"/>
	</g>
</g>
<g>
	
		<image style="overflow:visible;opacity:0.75;" width="253" height="254" xlink:href="7E7A343B.png"  transform="matrix(0.48 0 0 0.48 94.44 -5.88)">
	</image>
	<g>
		<path class="st2" d="M187.7,95h-75.5c-4,0-7.3-3.2-7.3-7.3V12.2c0-4,3.2-7.3,7.3-7.3h75.5c4,0,7.3,3.2,7.3,7.3v75.5
			C195,91.7,191.8,95,187.7,95z"/>
		<path class="st3" d="M187.7,95h-75.5c-4,0-7.3-3.2-7.3-7.3V12.2c0-4,3.2-7.3,7.3-7.3h75.5c4,0,7.3,3.2,7.3,7.3v75.5
			C195,91.7,191.8,95,187.7,95z"/>
	</g>
</g>
<g>
	
		<image style="overflow:visible;opacity:0.75;" width="254" height="254" xlink:href="7E7A343E.png"  transform="matrix(0.48 0 0 0.48 -0.3683 181.2702)">
	</image>
	<g>
		<path class="st0" d="M93.3,282.2H17.8c-4,0-7.3-3.2-7.3-7.3v-75.5c0-4,3.2-7.3,7.3-7.3h75.5c4,0,7.3,3.2,7.3,7.3V275
			C100.6,279,97.3,282.2,93.3,282.2z"/>
		<path class="st1" d="M93.3,282.2H17.8c-4,0-7.3-3.2-7.3-7.3v-75.5c0-4,3.2-7.3,7.3-7.3h75.5c4,0,7.3,3.2,7.3,7.3V275
			C100.6,279,97.3,282.2,93.3,282.2z"/>
	</g>
</g>
<g>
	
		<image style="overflow:visible;opacity:0.75;" width="254" height="254" xlink:href="7E7A343F.png"  transform="matrix(0.48 0 0 0.48 188.52 87.72)">
	</image>
	<g>
		<path class="st4" d="M282.2,188.6h-75.5c-4,0-7.3-3.2-7.3-7.3v-75.5c0-4,3.2-7.3,7.3-7.3h75.5c4,0,7.3,3.2,7.3,7.3v75.5
			C289.4,185.3,286.2,188.6,282.2,188.6z"/>
		<path class="st5" d="M282.2,188.6h-75.5c-4,0-7.3-3.2-7.3-7.3v-75.5c0-4,3.2-7.3,7.3-7.3h75.5c4,0,7.3,3.2,7.3,7.3v75.5
			C289.4,185.3,286.2,188.6,282.2,188.6z"/>
	</g>
</g>
<g>
	
		<image style="overflow:visible;opacity:0.75;" width="253" height="254" xlink:href="7E7A343A.png"  transform="matrix(0.48 0 0 0.48 94.44 87.72)">
	</image>
	<g>
		<path class="st6" d="M187.7,188.6h-75.5c-4,0-7.3-3.2-7.3-7.3v-75.5c0-4,3.2-7.3,7.3-7.3h75.5c4,0,7.3,3.2,7.3,7.3v75.5
			C195,185.3,191.8,188.6,187.7,188.6z"/>
		<path class="st1" d="M187.7,188.6h-75.5c-4,0-7.3-3.2-7.3-7.3v-75.5c0-4,3.2-7.3,7.3-7.3h75.5c4,0,7.3,3.2,7.3,7.3v75.5
			C195,185.3,191.8,188.6,187.7,188.6z"/>
	</g>
</g>
<g>
	
		<image style="overflow:visible;opacity:0.75;" width="254" height="254" xlink:href="7E7A3435.png"  transform="matrix(0.48 0 0 0.48 -0.12 87.72)">
	</image>
	<g>
		<path class="st4" d="M93.3,188.6H17.8c-4,0-7.3-3.2-7.3-7.3v-75.5c0-4,3.2-7.3,7.3-7.3h75.5c4,0,7.3,3.2,7.3,7.3v75.5
			C100.6,185.3,97.3,188.6,93.3,188.6z"/>
		<path class="st5" d="M93.3,188.6H17.8c-4,0-7.3-3.2-7.3-7.3v-75.5c0-4,3.2-7.3,7.3-7.3h75.5c4,0,7.3,3.2,7.3,7.3v75.5
			C100.6,185.3,97.3,188.6,93.3,188.6z"/>
	</g>
</g>
<g>
	
		<image style="overflow:visible;opacity:0.75;" width="254" height="253" xlink:href="7E7A3436.png"  transform="matrix(0.48 0 0 0.48 188.6226 -5.7337)">
	</image>
	<g>
		<path class="st0" d="M282.2,95h-75.5c-4,0-7.3-3.2-7.3-7.3V12.2c0-4,3.2-7.3,7.3-7.3h75.5c4,0,7.3,3.2,7.3,7.3v75.5
			C289.4,91.7,286.2,95,282.2,95z"/>
		<path class="st1" d="M282.2,95h-75.5c-4,0-7.3-3.2-7.3-7.3V12.2c0-4,3.2-7.3,7.3-7.3h75.5c4,0,7.3,3.2,7.3,7.3v75.5
			C289.4,91.7,286.2,95,282.2,95z"/>
	</g>
</g>
<g>
	
		<image style="overflow:visible;opacity:0.75;" width="253" height="254" xlink:href="7E7A3437.png"  transform="matrix(0.48 0 0 0.48 94.44 181.32)">
	</image>
	<g>
		<path class="st2" d="M187.7,282.2h-75.5c-4,0-7.3-3.2-7.3-7.3v-75.5c0-4,3.2-7.3,7.3-7.3h75.5c4,0,7.3,3.2,7.3,7.3V275
			C195,279,191.8,282.2,187.7,282.2z"/>
		<path class="st3" d="M187.7,282.2h-75.5c-4,0-7.3-3.2-7.3-7.3v-75.5c0-4,3.2-7.3,7.3-7.3h75.5c4,0,7.3,3.2,7.3,7.3V275
			C195,279,191.8,282.2,187.7,282.2z"/>
	</g>
</g>
<g>
	
		<image style="overflow:visible;opacity:0.75;" width="254" height="254" xlink:href="7E7A3449.png"  transform="matrix(0.48 0 0 0.48 -0.12 -5.88)">
	</image>
	<g>
		<path class="st0" d="M93.3,95H17.8c-4,0-7.3-3.2-7.3-7.3V12.2c0-4,3.2-7.3,7.3-7.3h75.5c4,0,7.3,3.2,7.3,7.3v75.5
			C100.6,91.7,97.3,95,93.3,95z"/>
		<path class="st1" d="M93.3,95H17.8c-4,0-7.3-3.2-7.3-7.3V12.2c0-4,3.2-7.3,7.3-7.3h75.5c4,0,7.3,3.2,7.3,7.3v75.5
			C100.6,91.7,97.3,95,93.3,95z"/>
	</g>
</g>
<path class="st7" d="M82.2,100.6H29c-7.8,0-14.1-6.3-14.1-14.1V36.3c0-7.8,6.3-14.1,14.1-14.1h53.3c7.8,0,14.1,6.3,14.1,14.1v50.2
	C96.4,94.3,90,100.6,82.2,100.6z"/>
<text transform="matrix(1 0 0 1 30.7885 73.2487)" class="st8 st9 st10">O</text>
<path class="st7" d="M176.6,102.4h-53.3c-7.8,0-14.1-6.3-14.1-14.1V38.1c0-7.8,6.3-14.1,14.1-14.1h53.3c7.8,0,14.1,6.3,14.1,14.1
	v50.2C190.8,96.1,184.4,102.4,176.6,102.4z"/>
<text transform="matrix(1 0 0 1 126.3125 75.0481)" class="st8 st9 st10">N</text>
<path class="st7" d="M271,102.4h-53.3c-7.8,0-14.1-6.3-14.1-14.1V38.1c0-7.8,6.3-14.1,14.1-14.1H271c7.8,0,14.1,6.3,14.1,14.1v50.2
	C285.2,96.1,278.9,102.4,271,102.4z"/>
<text transform="matrix(1 0 0 1 226.6963 75.0481)" class="st8 st9 st10">E</text>
<path class="st7" d="M82.2,194.5H29c-7.8,0-14.1-6.3-14.1-14.1v-50.2c0-7.8,6.3-14.1,14.1-14.1h53.3c7.8,0,14.1,6.3,14.1,14.1v50.2
	C96.4,188.2,90,194.5,82.2,194.5z"/>
<text transform="matrix(1 0 0 1 37.8442 167.0984)" class="st8 st9 st10">S</text>
<path class="st7" d="M176.6,196.3h-53.3c-7.8,0-14.1-6.3-14.1-14.1v-50.2c0-7.8,6.3-14.1,14.1-14.1h53.3c7.8,0,14.1,6.3,14.1,14.1
	v50.2C190.8,190,184.4,196.3,176.6,196.3z"/>
<text transform="matrix(1 0 0 1 135.3843 168.8978)" class="st8 st9 st10">?</text>
<path class="st7" d="M271,198.1h-53.3c-7.8,0-14.1-6.3-14.1-14.1v-50.2c0-7.8,6.3-14.1,14.1-14.1H271c7.8,0,14.1,6.3,14.1,14.1V184
	C285.2,191.8,278.9,198.1,271,198.1z"/>
<text transform="matrix(1 0 0 1 219.604 170.6971)" class="st8 st9 st10">O</text>
<path class="st7" d="M82.2,288.3H29c-7.8,0-14.1-6.3-14.1-14.1V224c0-7.8,6.3-14.1,14.1-14.1h53.3c7.8,0,14.1,6.3,14.1,14.1v50.2
	C96.4,282,90,288.3,82.2,288.3z"/>
<text transform="matrix(1 0 0 1 37.7007 260.9481)" class="st8 st9 st10">T</text>
<path class="st7" d="M176.6,288.3h-53.3c-7.8,0-14.1-6.3-14.1-14.1V224c0-7.8,6.3-14.1,14.1-14.1h53.3c7.8,0,14.1,6.3,14.1,14.1
	v50.2C190.8,282,184.4,288.3,176.6,288.3z"/>
<text transform="matrix(1 0 0 1 132.2519 260.9481)" class="st8 st9 st10">S</text>
<path class="st7" d="M271,290.1h-53.3c-7.8,0-14.1-6.3-14.1-14.1v-50.2c0-7.8,6.3-14.1,14.1-14.1H271c7.8,0,14.1,6.3,14.1,14.1V276
	C285.2,283.8,278.9,290.1,271,290.1z"/>
<text transform="matrix(1 0 0 1 220.936 262.7474)" class="st8 st9 st10">H</text>
</svg>
